<svg xmlns="http://www.w3.org/2000/svg" width="18" height="18.74" viewBox="0 0 18 18.74">

  <g id="Group_3069" data-name="Group 3069" opacity="0.8">
    <path id="Path_665" data-name="Path 665" d="M18.953,8.1l.563-.651c.422-.506,2.461-2.967,2.461-4.414a2.989,2.989,0,1,0-5.977,0c0,1.519,2.039,3.98,2.461,4.414Zm0-6.657A1.584,1.584,0,0,1,20.5,3.039a8.349,8.349,0,0,1-1.547,2.822,7.234,7.234,0,0,1-1.547-2.822A1.584,1.584,0,0,1,18.953,1.447Z" transform="translate(-4.75 0)" fill="#666"/>
    <path id="Path_666" data-name="Path 666" d="M14.836,12.175H2.813a1.46,1.46,0,0,1-1.406-1.664A1.688,1.688,0,0,1,3.164,8.847h8.719L10.9,7.4H3.164A3.129,3.129,0,0,0,0,10.584a2.859,2.859,0,0,0,2.742,3.039H14.836a1.73,1.73,0,0,1,1.758,1.737,1.766,1.766,0,0,1-1.758,1.954H7.523a2.652,2.652,0,0,0-2.531-2.026,2.751,2.751,0,0,0,0,5.5A2.652,2.652,0,0,0,7.523,18.76h7.383A3.229,3.229,0,0,0,18,15.359,3.179,3.179,0,0,0,14.836,12.175ZM4.922,19.339a1.3,1.3,0,1,1,1.266-1.3A1.279,1.279,0,0,1,4.922,19.339Z" transform="translate(0 -2.046)" fill="#666"/>
  </g>
    

</svg>
